<?xml version="1.0" encoding="UTF-8"?>
<svg id="Layer_2" data-name="Layer 2" xmlns="http://www.w3.org/2000/svg" viewBox="0 0 275.53 206.91">
  <defs>
    <style>
      .cls-1 {
        fill: #fff;
      }
    </style>
  </defs>
  <g id="Debt_Rush_Logo" data-name="Debt Rush Logo">
    <g>
      <g>
        <path d="M83.7,137.44h36.87c1.65,0,3.06-1.19,3.33-2.82l1.16-6.89c.35-2.06-1.24-3.94-3.33-3.94h-18.53c-2.09,0-3.68-1.87-3.33-3.93l.62-3.76c.27-1.63,1.68-2.83,3.33-2.83h15.62c1.65,0,3.06-1.19,3.33-2.82l1.03-6.1c.35-2.06-1.24-3.94-3.33-3.94h-13.4c-2.09,0-3.68-1.87-3.33-3.93l.42-2.54c.27-1.63,1.68-2.83,3.33-2.83h19.72c1.65,0,3.06-1.19,3.33-2.82l1.04-6.23c.34-2.06-1.24-3.94-3.33-3.94h-35.78c-1.65,0-3.06,1.19-3.33,2.82l-8.78,52.56c-.34,2.06,1.24,3.94,3.33,3.94Z"/>
        <path d="M134.76,137.44h28.34c7.24,0,12.42-1.74,15.54-5.21s4.67-7.52,4.67-12.12c0-4.19-1.43-7.49-4.3-9.9-1.74-1.47-1.4-4.2.53-5.41,1.2-.76,2.27-1.66,3.2-2.69,2.29-2.53,3.43-5.61,3.43-9.23,0-3.3-.96-6.19-2.89-8.65-1.93-2.46-4.31-4.09-7.15-4.89-2.84-.8-6.49-1.19-10.95-1.19h-21.65c-1.65,0-3.06,1.19-3.33,2.82l-8.78,52.56c-.34,2.06,1.24,3.94,3.33,3.94ZM154.73,96.83l.56-3.37c.27-1.63,1.68-2.82,3.33-2.82h3.93c4.3,0,6.45,1.58,6.45,4.74,0,3.59-2.71,5.39-8.14,5.39h-2.8c-2.09,0-3.68-1.88-3.33-3.94ZM150.8,120.38l.73-4.37c.27-1.63,1.68-2.82,3.33-2.82h4.58c2.26,0,3.97.51,5.11,1.54,1.15,1.03,1.72,2.38,1.72,4.06,0,1.36-.52,2.62-1.57,3.78-1.04,1.16-2.94,1.74-5.7,1.74h-4.88c-2.09,0-3.68-1.88-3.33-3.94Z"/>
        <path d="M231.64,77.95h-36.11c-1.65,0-3.06,1.19-3.33,2.82l-1.16,6.89c-.35,2.06,1.24,3.94,3.33,3.94h4.7c2.09,0,3.68,1.88,3.33,3.94l-6.37,37.97c-.35,2.06,1.24,3.94,3.33,3.94h10.38c1.65,0,3.06-1.19,3.33-2.82l6.74-40.21c.27-1.63,1.68-2.82,3.33-2.82h7.35c1.65,0,3.06-1.2,3.33-2.83l1.14-6.89c.34-2.06-1.25-3.93-3.33-3.93Z"/>
        <path d="M28.15,86.33l-7.88,47.18c-.34,2.06,1.24,3.94,3.33,3.94h17.69c6.14,0,10.92-.3,14.32-.89s6.89-2.26,10.47-5c3.58-2.74,6.45-6.44,8.63-11.1,2.17-4.66,3.26-9.92,3.26-15.77,0-4.52-.71-8.57-2.13-12.15-1.42-3.58-3.52-6.52-6.3-8.84-2.78-2.32-5.66-3.82-8.63-4.52s-6.84-1.04-11.62-1.04H10.61s11.1,2.92,17.53,8.21ZM40.24,120.21l4.41-26.4c.27-1.63,1.68-2.82,3.33-2.82h2.26c6.63,0,9.95,4.37,9.95,13.11,0,4.54-.72,8.43-2.17,11.65-1.45,3.23-3.17,5.43-5.16,6.62s-5.09,1.78-9.29,1.78c-2.09,0-3.68-1.88-3.33-3.94Z"/>
        <path d="M44.65,146.68H0s10.94,2.88,17.4,8.1l-7.9,47.29c-.34,2.06,1.24,3.94,3.33,3.94h10.07c1.65,0,3.06-1.19,3.33-2.82l2.84-16.91c.27-1.63,1.68-2.82,3.33-2.82h1.47c1.57,0,2.94,1.09,3.29,2.62l4.01,17.32c.35,1.53,1.72,2.62,3.29,2.62h10.5c2.21,0,3.83-2.09,3.27-4.23l-4.6-17.81c-.4-1.54.31-3.17,1.74-3.86,6.66-3.21,9.99-8.62,9.99-16.22,0-5.3-1.69-9.5-5.08-12.58-3.39-3.09-8.6-4.63-15.64-4.63ZM38.29,171.1h-2.68c-2.09,0-3.68-1.88-3.33-3.94l.88-5.23c.27-1.63,1.68-2.82,3.33-2.82h3.34c5.38,0,8.07,1.83,8.07,5.48,0,4.35-3.21,6.52-9.62,6.52Z"/>
        <path d="M116.8,146.68h-7.34c-1.65,0-3.06,1.19-3.33,2.82l-5.74,34.29c-.64,3.88-1.62,6.47-2.95,7.76s-3.28,1.94-5.86,1.94c-2.05,0-3.81-.52-5.27-1.56s-2.19-2.48-2.19-4.3c0-.96.17-2.43.52-4.43l5.41-32.57c.34-2.06-1.25-3.93-3.33-3.93h-11.22c-1.65,0-3.06,1.19-3.33,2.82l-5.65,33.68c-.41,2.41-.61,4.55-.61,6.43,0,5.53,1.96,9.8,5.87,12.8,3.91,3,9.37,4.5,16.38,4.5,5.42,0,10.08-.92,13.99-2.76s6.72-4.24,8.43-7.21c1.71-2.97,3.08-7.55,4.13-13.75l5.43-32.57c.34-2.06-1.25-3.94-3.33-3.94Z"/>
        <path d="M162.74,174.19c-2.12-1.69-4.41-2.98-6.87-3.85l-9.42-3.36c-2.55-.9-4.1-1.66-4.65-2.27-.55-.61-.83-1.33-.83-2.17,0-2.61,1.96-3.91,5.87-3.91,2.09,0,4,.51,5.74,1.52,1.01.59,1.8,1.3,2.37,2.14.79,1.16,2.23,1.69,3.59,1.34l8.65-2.19c2.18-.55,3.26-3.06,2.09-4.98-1.64-2.71-4-4.97-7.06-6.78-4.46-2.64-9.82-3.95-16.08-3.95-8.2,0-14.29,1.88-18.27,5.62s-5.98,8.33-5.98,13.75c0,3.13.73,5.85,2.2,8.17,1.46,2.32,3.29,4.06,5.48,5.23,2.19,1.17,6.01,2.76,11.45,4.77,4.02,1.48,6.28,2.35,6.75,2.59.48.25.93.65,1.35,1.2.42.55.63,1.19.63,1.91,0,1.13-.54,2.14-1.63,3.02-1.09.88-2.85,1.33-5.28,1.33-4.78,0-8.09-1.41-9.95-4.24-.77-1.18-2.14-1.83-3.53-1.56l-10.4,2.03c-2.26.44-3.45,2.98-2.31,4.97,2.04,3.55,4.89,6.32,8.56,8.32,5,2.72,10.86,4.08,17.58,4.08,7.85,0,14.13-1.95,18.84-5.86,4.71-3.91,7.06-8.86,7.06-14.85,0-2.29-.46-4.44-1.39-6.45s-2.45-3.86-4.57-5.56Z"/>
        <path d="M224.48,146.68h-10.37c-1.65,0-3.06,1.19-3.33,2.82l-2.7,16.17c-.27,1.63-1.68,2.82-3.33,2.82h-8.54c-2.09,0-3.68-1.88-3.33-3.94l2.33-13.94c.34-2.06-1.24-3.94-3.33-3.94h-10.37c-1.65,0-3.06,1.19-3.33,2.82l-8.78,52.56c-.34,2.06,1.24,3.94,3.33,3.94h10.37c1.65,0,3.06-1.19,3.33-2.82l3.04-18.21c.27-1.63,1.68-2.82,3.33-2.82h8.54c2.09,0,3.68,1.88,3.33,3.94l-2.67,15.98c-.34,2.06,1.24,3.94,3.33,3.94h10.37c1.65,0,3.06-1.19,3.33-2.82l8.78-52.56c.34-2.06-1.24-3.94-3.33-3.94Z"/>
      </g>
      <g>
        <g>
          <path class="cls-1" d="M273.64,181.38c.52,2.51-.83,4.6-3.55,5.05-10.78,1.8-30.38-10.52-33.83-21.64-.82-2.66.73-5.09,3.53-5.53,3.22-.52,6.47.01,9.67,1.14,8.18,2.89,15.57,7.83,21.01,14.56,1.56,1.94,2.69,4.12,3.17,6.42Z"/>
          <path d="M269.73,171.44c3.87,4.07,7.4,9.86,5.03,13.94-.48.82-2.96,3.93-3.51,4.57-3.07,3.58-9.26,2.93-14.38,1.18-7.68-2.61-14.59-7.06-20.08-13.02-3.3-3.59-6.59-8.78-4.97-13.2,0,0,3.16-4.75,3.72-5.35,3.23-3.53,9.55-2.57,14.66-.74,7.45,2.64,14.07,6.93,19.52,12.63ZM270.09,186.43c2.72-.45,4.07-2.54,3.55-5.05-.48-2.3-1.61-4.48-3.17-6.42-5.44-6.73-12.83-11.66-21.01-14.56-3.2-1.13-6.46-1.67-9.67-1.14-2.8.44-4.35,2.87-3.53,5.53,3.45,11.13,23.05,23.44,33.83,21.64ZM270.14,188.37c-10.99.77-23.32-6.92-30.55-14.7-2.47-2.68-4.16-5.56-5.29-9.15-2.72,2.75.07,7.98,2.87,11.22,5.28,6.08,12,10.65,19.58,13.38,4.47,1.62,10.86,2.81,13.39-.75Z"/>
          <path class="cls-1" d="M239.58,173.67c7.23,7.78,19.56,15.47,30.55,14.7-2.53,3.56-8.92,2.37-13.39.75-7.59-2.73-14.31-7.3-19.58-13.38-2.8-3.24-5.59-8.47-2.87-11.22,1.13,3.59,2.82,6.47,5.29,9.15Z"/>
        </g>
        <g>
          <path class="cls-1" d="M256.29,115.87c1.64,1.91,1.33,4.39.52,6.68-1.72,4.82-5.03,8.78-8.91,12.15-5.72,4.87-15.32,10.3-21.61,6.02,2.99-.18,5.37-.18,7.87-1.12,9.7-3.59,20.63-12.91,22.13-23.73Z"/>
          <path d="M257.92,115.03c2.63,4.12.36,10.02-3.03,14.56-5.48,7.32-15.27,14.62-24.24,14.45-1.91-.03-3.51-.67-4.8-1.77-.83-.71-3.66-3.89-4.15-4.67-2.12-3.38-.63-8.48,1.9-12.4,4.29-6.61,10.48-11.84,17.75-14.89,4.47-1.86,10.41-2.46,13.23.64.46.5,2.8,3.23,3.33,4.07ZM256.81,122.55c.81-2.29,1.12-4.77-.52-6.68-1.5,10.82-12.43,20.14-22.13,23.73-2.5.93-4.87.93-7.87,1.12,6.28,4.28,15.89-1.14,21.61-6.02,3.88-3.36,7.19-7.33,8.91-12.15ZM227.75,139.04c11.96-.2,27.09-13.98,26.83-23.88-.08-2.34-1.71-4.03-3.91-4.48-10.06-2.02-27.15,11.31-28.36,22.61-.37,3.35,2.23,5.79,5.44,5.75Z"/>
          <path class="cls-1" d="M254.58,115.15c.25,9.9-14.87,23.68-26.83,23.88-3.21.04-5.8-2.4-5.44-5.75,1.21-11.3,18.3-24.63,28.36-22.61,2.2.45,3.83,2.13,3.91,4.48Z"/>
        </g>
        <g>
          <path d="M205.22,53.62c3.7,3.23,6.81,7.75,5.08,11.53-.29.64-1.75,3.53-2.15,4.2-1.95,3.33-6.54,3.94-11.11,3.2-7.99-1.26-15.4-4.78-21.31-10.25-3.54-3.25-6.31-7.54-4.67-11.27.3-.68,1.86-4.21,2.54-5.06.8-1,1.97-1.73,3.38-2.05,9-2.1,21.12,3.47,28.23,9.71ZM207.03,66.1c1.68-.69,2.46-2.5,1.97-4.3-.81-2.92-2.76-5.2-5.09-7.2-6.08-5.18-13.55-8.61-21.55-9.51-2.14-.25-4.31.12-6.04.94-1.97.92-2.64,2.94-1.84,4.91.92,2.34,2.48,4.3,4.43,6.06,6.03,5.45,13.6,8.94,21.73,9.99,2.23.3,4.44-.08,6.4-.89ZM206.84,68.43l-6.94.16c-10.45-1.6-22.6-7.75-27.2-17.25-1.49,3.06,1.39,7.24,4.05,9.61,6.21,5.56,14.06,9.35,22.41,10.06,3.02.27,6.07-.27,7.69-2.58Z"/>
          <path class="cls-1" d="M209,61.8c.5,1.8-.29,3.61-1.97,4.3-1.95.81-4.17,1.19-6.4.89-8.13-1.06-15.7-4.55-21.73-9.99-1.95-1.76-3.5-3.71-4.43-6.06-.81-1.97-.13-3.99,1.84-4.91,1.73-.82,3.91-1.19,6.04-.94,8,.9,15.46,4.33,21.55,9.51,2.33,2.01,4.29,4.29,5.09,7.2Z"/>
          <path class="cls-1" d="M199.89,68.58l6.94-.16c-1.62,2.31-4.66,2.85-7.69,2.58-8.35-.7-16.19-4.49-22.41-10.06-2.66-2.37-5.54-6.55-4.05-9.61,4.6,9.5,16.75,15.65,27.2,17.25Z"/>
        </g>
        <g>
          <path d="M167.39,61.52c.6,1.31.26,2.47-.47,3.37-.1.13-.22.25-.34.37,0,0-2.79,3.13-3.03,3.36-1.84,1.82-6.35-.56-9.4-2.56-8.04-5.23-15.21-11.52-21.56-18.7-2.51-2.83-5.56-7.13-3.89-9.14.24-.29,2.87-3.35,4.26-4.32.13-.09.27-.18.4-.26,4.16-2.48,29.18,17.01,34.01,27.89ZM163.83,65.51l2.01-2.64c-1.15-2.22-2.02-3.85-3.5-5.62-6.26-7.44-13.65-13.86-21.89-19.04-2.21-1.4-4.49-2.48-6.94-2.85l-1.65,2.33,5.53,2.73c7.87,4.96,14.91,10.99,21.17,17.84,2.08,2.27,3.61,4.39,5.28,7.26ZM162.13,67.54c-.57-3.02-2.19-4.27-3.49-6.23-5.98-6.91-12.84-12.93-20.44-18.02-2.49-1.66-4.9-3.02-8.01-3.79.51,2.5,1.92,4.28,3.5,6.14,6.14,7.26,13.34,13.48,21.34,18.66,2.29,1.49,4.66,2.66,7.1,3.23Z"/>
          <path class="cls-1" d="M165.84,62.88l-2.01,2.64c-1.67-2.86-3.2-4.99-5.28-7.26-6.27-6.85-13.3-12.87-21.17-17.84l-5.53-2.73,1.65-2.33c2.45.37,4.73,1.45,6.94,2.85,8.24,5.18,15.64,11.6,21.89,19.04,1.48,1.76,2.36,3.39,3.5,5.62Z"/>
          <path class="cls-1" d="M158.63,61.3c1.3,1.97,2.92,3.21,3.49,6.23-2.44-.57-4.81-1.74-7.1-3.23-8-5.18-15.2-11.4-21.34-18.66-1.58-1.86-3-3.64-3.5-6.14,3.11.76,5.52,2.12,8.01,3.79,7.6,5.09,14.47,11.11,20.44,18.02Z"/>
        </g>
        <g>
          <path d="M113.43,13.87c4.91,1.87,10.3,5.28,9.72,10.01-.08.68-.55,3.56-.73,4.22-.31,1.14-1.05,2.14-2.22,2.85-10.5,6.56-37.56-1.49-35.77-10.09l.73-3.55c.38-1.82.98-3.24,2.65-4.16,6.83-3.76,18.12-2.13,25.6.72ZM121.52,23.81c.83-4.18-5.52-7.32-9.61-8.79-6.58-2.38-15.63-3.63-22.02-1.09-1.69.69-3.27,1.88-3.56,3.8,2.29-1.21,4.38-2,6.85-2.24,9.34-.95,21.91,1.36,28.34,8.32ZM121.04,27.23c.24-7.11-23.73-14.27-33.52-8.29-1.65,1-2.12,2.83-1.02,4.44.96,1.38,2.27,2.61,3.87,3.52,6.84,3.89,14.93,5.51,22.94,4.71,3.33-.33,7.63-1.95,7.73-4.38Z"/>
          <path class="cls-1" d="M111.91,15.02c4.09,1.47,10.44,4.61,9.61,8.79-6.42-6.97-18.99-9.28-28.34-8.32-2.48.24-4.57,1.04-6.85,2.24.29-1.92,1.87-3.12,3.56-3.8,6.39-2.53,15.44-1.28,22.02,1.09Z"/>
          <path class="cls-1" d="M87.52,18.94c9.8-5.98,33.76,1.18,33.52,8.29-.1,2.43-4.4,4.05-7.73,4.38-8.02.8-16.1-.82-22.94-4.71-1.6-.91-2.91-2.13-3.87-3.52-1.11-1.61-.63-3.45,1.02-4.44Z"/>
        </g>
        <g>
          <path d="M111.31,47.23c7.57,4.96,13.36,12.28,16.4,20.81,1.61,4.46,1.84,9.51-1.38,12.32-.6.52-3.17,2.57-3.76,3.02-1.13.85-2.49,1.26-4.06,1.21-6.57-.65-12.3-5.65-16.62-10.74-3.93-4.61-6.99-9.68-8.39-15.54-.81-3.42-.65-7.02,1.38-9.16.68-.71,3.88-3.05,4.59-3.52,3.33-2.23,8.09-.85,11.85,1.6ZM126.69,71.4c-1.94-9.45-10.68-20.49-19.22-24.06-2.08-.87-4.49-1.58-6.8-.11,3.47,1.12,6.58,2.5,9.46,4.8,7.75,6.26,15.15,16.57,15.03,26.93,2.02-2.03,2.09-4.8,1.52-7.56ZM122.16,71.31c-2.99-8.01-8.38-14.92-15.53-19.6-2.15-1.39-4.5-2.34-6.9-2.53-2.45-.18-4.29,1.45-4.69,3.79-1.77,10.55,12.99,29.33,23.65,29.71,2.24.08,4.09-1.39,4.43-3.78.36-2.59-.05-5.15-.96-7.6Z"/>
          <path class="cls-1" d="M107.47,47.34c8.54,3.57,17.28,14.61,19.22,24.06.56,2.76.5,5.53-1.52,7.56.11-10.37-7.29-20.67-15.03-26.93-2.88-2.31-5.99-3.68-9.46-4.8,2.31-1.46,4.72-.75,6.8.11Z"/>
          <path class="cls-1" d="M106.63,51.72c7.15,4.68,12.55,11.59,15.53,19.6.91,2.45,1.32,5,.96,7.6-.34,2.39-2.19,3.87-4.43,3.78-10.67-.38-25.42-19.16-23.65-29.71.4-2.35,2.24-3.98,4.69-3.79,2.4.19,4.75,1.14,6.9,2.53Z"/>
        </g>
        <g>
          <path d="M89.74,35.28c1.08.95,2.08,1.94,1.66,3.81-.55,2.55-1.84,5.07-3.39,7.35-6.27,9.27-13.84,17.28-22.69,24.12-2.15,1.65-4.68,3.15-7.15,3.99-1.2.42-2,.32-2.63-.03-.67-.36-4.06-3.51-5.1-4.58-.45-.46-.84-.95-1.12-1.46.08-3.05,1.36-5.73,3-8.25,6.54-10.01,14.82-18.76,24.53-25.77,2.52-1.82,5.01-2.95,8.11-3.46l4.78,4.28ZM87.18,35.51l-2.79-2.07c-2.16.23-4.67,1.58-6.73,3.07-9.22,6.68-17.04,14.92-23.32,24.41-1.58,2.42-2.86,5.23-2.91,7.9l2.62,2.21c3.62-10.74,16.02-23.41,25.45-30.87,2.34-1.86,4.96-3.23,7.69-4.65ZM86.4,45.33c1.66-2.47,2.73-4.75,3.33-7.98-3.08.53-5.41,1.7-7.78,3.49-8.64,6.47-16.15,14.27-22.28,23.17-1.86,2.7-3.23,5.23-3.78,8.8,3.05-.47,5.3-1.76,7.83-3.63,9.03-6.62,16.57-14.73,22.69-23.85Z"/>
          <path class="cls-1" d="M84.38,33.44l2.79,2.07c-2.73,1.42-5.34,2.79-7.69,4.65-9.43,7.46-21.83,20.14-25.45,30.87l-2.62-2.21c.05-2.66,1.32-5.47,2.91-7.9,6.28-9.49,14.1-17.73,23.32-24.41,2.07-1.49,4.57-2.84,6.73-3.07Z"/>
          <path class="cls-1" d="M89.73,37.35c-.6,3.23-1.66,5.51-3.33,7.98-6.12,9.12-13.66,17.23-22.69,23.85-2.54,1.87-4.78,3.16-7.83,3.63.55-3.57,1.92-6.1,3.78-8.8,6.14-8.9,13.64-16.7,22.28-23.17,2.37-1.79,4.7-2.95,7.78-3.49Z"/>
        </g>
        <g>
          <path d="M61.77,36.29c.46,3.66-1.32,5.64-3.81,7.62-1.69,1.36-3.13,3.1-5.02,4.34-4.3,1.32-9.89-.09-14.04-2.18-10.71-5.35-19.93-13.7-25.97-24.06-2.37-4.05-4.5-11.85,2.2-18.02C21.84-2.19,26.93-.12,33.03,3.03c10.32,5.36,19.07,13.52,25.2,23.39,1.92,3.11,3.11,6.49,3.54,9.86ZM54.43,42.01c3.07.03,5.43-2.16,5.07-5.44-.37-3.48-1.6-6.53-3.41-9.43-5.64-9.02-13.6-16.36-22.9-21.51-4.6-2.55-12.36-5.18-15.39-1.54-2.79,3.33,1.02,11.13,4.07,15.43,5.96,8.37,13.8,15.35,23.03,19.93,3.07,1.52,6.26,2.51,9.53,2.56ZM39.1,43.49c4.75,2.45,11.94,4.63,15.16.95-3.79-.46-7.07-1.27-10.41-2.96-10.84-5.49-20.06-14.06-26.22-24.56-1.87-3.2-2.81-6.49-3.06-9.82-5.06,3.36-1.32,11.56,2.09,16.53,5.74,8.4,13.4,15.21,22.44,19.85Z"/>
          <path class="cls-1" d="M59.51,36.57c.35,3.28-2,5.47-5.07,5.44-3.27-.05-6.46-1.05-9.53-2.56-9.23-4.58-17.06-11.56-23.03-19.93-3.05-4.3-6.85-12.1-4.07-15.43,3.03-3.64,10.79-1.01,15.39,1.54,9.3,5.15,17.26,12.49,22.9,21.51,1.82,2.9,3.05,5.95,3.41,9.43Z"/>
          <path class="cls-1" d="M54.25,44.44c-3.22,3.67-10.41,1.49-15.16-.95-9.04-4.64-16.7-11.46-22.44-19.85-3.41-4.97-7.15-13.17-2.09-16.53.25,3.33,1.19,6.62,3.06,9.82,6.16,10.5,15.38,19.07,26.22,24.56,3.33,1.69,6.62,2.5,10.41,2.96Z"/>
        </g>
      </g>
    </g>
  </g>
</svg>